<svg width="5" height="5" viewBox="0 0 5 5" fill="none" xmlns="http://www.w3.org/2000/svg">
<path d="M0.892442 1.05291C0.145792 1.75291 0.145792 2.91956 0.892442 3.66626C1.26579 4.03961 1.73244 4.22626 2.19909 4.22626C2.66574 4.22626 3.13244 4.03961 3.50574 3.66626C4.25239 2.96626 4.25239 1.79961 3.50574 1.05291C2.80579 0.306258 1.63909 0.306258 0.892442 1.05291ZM2.85244 3.05956C2.47909 3.43291 1.91909 3.43291 1.54579 3.05956C1.1725 2.68621 1.17244 2.1262 1.54579 1.75291C1.73244 1.56626 1.96579 1.47291 2.19915 1.47291C2.4325 1.47291 2.6658 1.56626 2.8525 1.75291C3.2258 2.12626 3.2258 2.68626 2.85244 3.05956Z" fill="#E3B873"/>
</svg>
